<?xml version="1.0" encoding="UTF-8" standalone="no"?> <svg width="101" height="101" viewBox="0 0 101 101" fill="none" xmlns="http://www.w3.org/2000/svg">
<path d="M39.5 26H48.5C48.8978 26 49.2794 25.842 49.5607 25.5607C49.842 25.2794 50 24.8978 50 24.5C50 24.1022 49.842 23.7206 49.5607 23.4393C49.2794 23.158 48.8978 23 48.5 23H39.5C39.1022 23 38.7206 23.158 38.4393 23.4393C38.158 23.7206 38 24.1022 38 24.5C38 24.8978 38.158 25.2794 38.4393 25.5607C38.7206 25.842 39.1022 26 39.5 26V26Z" fill="black" stroke="black" stroke-width="2.2"/>
<path d="M89.05 57.6902C89.0485 56.3476 88.7351 55.0237 88.1347 53.8229C87.5343 52.622 86.6631 51.577 85.59 50.7702C87.4393 48.5748 88.4773 45.8102 88.53 42.9402C88.53 32.6602 75.6 13.4902 50.87 13.4902C25.79 13.4902 13.21 32.3702 13.21 42.9402C13.2392 45.4003 14.0171 47.7932 15.44 49.8002C14.0859 50.8251 13.0104 52.173 12.3116 53.7208C11.6128 55.2686 11.3132 56.9668 11.44 58.6602C11.6262 60.8507 12.5254 62.9197 14 64.5502C13.4872 65.8565 13.2227 67.247 13.22 68.6502C13.22 79.7802 29.76 88.5002 50.88 88.5002C72 88.5002 88.54 79.7802 88.54 68.6502C88.506 66.6869 87.9762 64.764 87 63.0602C88.3042 61.5734 89.0316 59.6679 89.05 57.6902V57.6902ZM82.27 63.0702C73.62 67.6002 64.72 69.8502 52.89 70.4302C53.06 70.0402 53.22 69.6402 53.38 69.2502C54.69 66.0102 55.93 62.9402 60.03 62.2502C70.14 60.9702 78.52 57.5902 83.53 53.0002C84.3073 53.5183 84.9449 54.22 85.3862 55.0434C85.8275 55.8667 86.0589 56.7861 86.06 57.7202C86.05 60.7602 83.41 62.4802 82.28 63.0702H82.27ZM50.88 16.5002C73.3 16.5002 85.54 34.0002 85.54 42.9502C85.54 52.0802 69.67 59.8002 50.88 59.8002C32.09 59.8002 16.21 52.0802 16.21 42.9502C16.21 33.4602 27.8 16.5002 50.88 16.5002ZM17.35 52.1202C23.54 58.5102 36.08 62.7902 50.87 62.7902C51.74 62.7902 52.6 62.7902 53.45 62.7902C52.2327 64.4303 51.2686 66.2438 50.59 68.1702C50.25 69.0202 49.92 69.8102 49.59 70.5302C47.96 73.7802 46.91 75.6502 44.21 76.1602C42.49 76.4902 40.21 76.4502 37.73 73.1602C37.368 72.5816 37.0569 71.9726 36.8 71.3402C35.36 68.1502 32.69 62.2002 24.7 64.3402C24.38 64.4202 24.07 64.5202 23.7 64.6202C23.1795 64.8095 22.6395 64.9403 22.09 65.0102C20.5471 65.1354 19.0055 64.7537 17.6993 63.923C16.3931 63.0922 15.3937 61.8579 14.8529 60.4075C14.3121 58.9571 14.2595 57.3697 14.7029 55.8867C15.1464 54.4036 16.0618 53.1057 17.31 52.1902L17.35 52.1202ZM50.88 85.5002C32.09 85.5002 16.22 77.7902 16.22 68.6502C16.2296 67.9745 16.3237 67.3026 16.5 66.6502C18.278 67.6842 20.3301 68.1484 22.38 67.9802C23.1577 67.8967 23.923 67.7221 24.66 67.4602L25.46 67.2202C30.57 65.8802 32.32 68.7302 34.06 72.6002C34.3959 73.4385 34.8181 74.2395 35.32 74.9902C37.49 77.8802 39.98 79.3002 42.89 79.3002C43.5176 79.2991 44.1437 79.2388 44.76 79.1202C48.3 78.4502 50.03 76.1202 51.41 73.5502C64.52 73.0702 74.22 70.7402 83.67 65.7802C84.04 65.5902 84.39 65.3702 84.72 65.1502C85.2473 66.2602 85.5271 67.4715 85.54 68.7002C85.54 77.7902 69.67 85.5002 50.88 85.5002Z" fill="black" stroke="black" stroke-width="2.2"/>
<path d="M56.08 34.8599C56.4777 34.8595 56.8589 34.7013 57.14 34.4199L64 27.5099C64.2649 27.2255 64.4092 26.8494 64.4023 26.4608C64.3955 26.0722 64.238 25.7015 63.9632 25.4266C63.6884 25.1518 63.3176 24.9944 62.929 24.9875C62.5404 24.9807 62.1643 25.1249 61.88 25.3899L55 32.2899C54.7904 32.4997 54.6478 32.7668 54.59 33.0576C54.5323 33.3484 54.562 33.6498 54.6754 33.9237C54.7888 34.1977 54.9809 34.4318 55.2273 34.5967C55.4737 34.7615 55.7635 34.8496 56.06 34.8499L56.08 34.8599Z" fill="black" stroke="black" stroke-width="2.2"/>
<path d="M42.74 33.6096C42.4556 33.3447 42.0795 33.2004 41.6909 33.2073C41.3023 33.2141 40.9316 33.3715 40.6567 33.6464C40.3819 33.9212 40.2245 34.292 40.2176 34.6806C40.2108 35.0692 40.355 35.4453 40.62 35.7296L47.53 42.6396C47.8143 42.9046 48.1904 43.0488 48.579 43.042C48.9676 43.0351 49.3384 42.8777 49.6132 42.6029C49.8881 42.328 50.0455 41.9573 50.0523 41.5687C50.0592 41.1801 49.915 40.804 49.65 40.5196L42.74 33.6096Z" fill="black" stroke="black" stroke-width="2.2"/>
</svg>
