<svg xmlns="http://www.w3.org/2000/svg" width="20" height="20" viewBox="0 0 20 20"><defs><style>.cls-1{fill:#00b04b;}</style></defs><g id="Capa_2" data-name="Capa 2"><g id="Capa_1-2" data-name="Capa 1"><g id="Capa_2-2" data-name="Capa 2"><g id="Capa_1-2-2" data-name="Capa 1-2"><g id="Capa_2-2-2" data-name="Capa 2-2"><g id="Capa_1-2-2-2" data-name="Capa 1-2-2"><g id="Capa_1-3" data-name="Capa 1-3"><path class="cls-1" d="M16.41,2.78a9.65,9.65,0,1,0,2.86,6.81A9.64,9.64,0,0,0,16.41,2.78Zm-2.8,14.48L14,15.47a.54.54,0,0,0-.36-.63l-2.17-.61a.55.55,0,0,0-.46.08L8.7,15.92a.52.52,0,0,0-.15.7l1,1.5v.13A8.66,8.66,0,0,1,2.82,15l1.46-.52A.54.54,0,0,0,4.63,14l-.44-3A.5.5,0,0,0,4,10.58l-1.55-1a.54.54,0,0,0-.73.16h0a.08.08,0,0,1,0,.07l-.61,1.33A8.7,8.7,0,0,1,2.29,4.87a.11.11,0,0,0,0,.08l.06.15A.52.52,0,0,0,3,5.39l.1,0,2-1.47a.5.5,0,0,0,.15-.14L6,2.57a.53.53,0,0,0-.13-.72h0l0,0a.49.49,0,0,0-.17,0,8.72,8.72,0,0,1,3.91-1l2.47,1.76a.61.61,0,0,0,.18.09l4,1.17a8.88,8.88,0,0,1,1.58,2.71.49.49,0,0,0-.5-.13.55.55,0,0,0-.34.31c-.43,1-.62,1.39-.7,1.58a.63.63,0,0,0-.05.3l.43,3a.54.54,0,0,0,.54.45h.43a.49.49,0,0,0,.35-.13A8.57,8.57,0,0,1,13.61,17.26Z"/><path class="cls-1" d="M10.88,4.41h0Z"/><path class="cls-1" d="M10.88,4.41h0Z"/><path class="cls-1" d="M14.74,8l-1.68-.54L13,7.43h0l-.05-.1L11.55,4.78l-.05-.17a1,1,0,0,1,0-.17s.32-.93.32-.93a.06.06,0,0,0,0-.08h0a.06.06,0,0,0-.09,0l-.7.85a2.58,2.58,0,0,1-.42.13l-2.72.53h-.1l-.17,0L6.23,4.38a.08.08,0,0,0-.09,0,.09.09,0,0,0,0,.12l1,.78a.94.94,0,0,1,.09.12v.33L7,8.07v.21a.35.35,0,0,1-.08.16l-.15.15L5.33,9.93a0,0,0,0,0,0,.05.06.06,0,0,0,.07,0h0L7,9.07A1.33,1.33,0,0,1,7.37,9l.11.05.11,0,2.35,1,.19.09h.07a.7.7,0,0,1,.12.28l.56,1.85H11s0,0,0-.06h0l-.22-2.07a1.92,1.92,0,0,1,0-.22l.13-.1L12.85,8h.21l1.66.17s0-.06,0-.07h0s0-.05,0-.08Z"/></g></g></g></g></g></g></g></svg>