<?xml version="1.0" encoding="UTF-8" standalone="no"?> <svg xmlns="http://www.w3.org/2000/svg" viewBox="0 0 48 48"><g id="BBQ_Grill" data-name="BBQ Grill"><path d="M37.958,15.829A2.992,2.992,0,0,0,37,10H11a2.992,2.992,0,0,0-.958,5.829,14,14,0,0,0,6.2,10.815L11.374,44.479A2.006,2.006,0,0,0,13.31,47h1.93a2,2,0,0,0,1.925-1.478L19.488,37H28.51l.866,3.181a5.007,5.007,0,1,0,5.536-1.953L31.759,26.644A13.993,13.993,0,0,0,37.958,15.829ZM11,12H37a1,1,0,0,1,0,2H11a1,1,0,0,1,0-2Zm4.24,33-1.935,0,4.734-17.355a14,14,0,0,0,1.736.7Zm4.793-10,1.691-6.2a12.923,12.923,0,0,0,4.552,0L27.965,35ZM36.5,43a3,3,0,1,1-3-3A3,3,0,0,1,36.5,43Zm-3.7-4.929a4.926,4.926,0,0,0-1.758.6L28.226,28.345a13.818,13.818,0,0,0,1.734-.7ZM24,27A12.009,12.009,0,0,1,12.051,16h23.9A12.009,12.009,0,0,1,24,27Z"/><path d="M23.221,7.627a1,1,0,1,0,1.558-1.254,1.5,1.5,0,0,1,0-1.746,3.5,3.5,0,0,0,0-4.254,1,1,0,1,0-1.558,1.254,1.5,1.5,0,0,1,0,1.746A3.5,3.5,0,0,0,23.221,7.627Z"/><path d="M31.721,7.627a1,1,0,1,0,1.558-1.254,1.5,1.5,0,0,1,0-1.746,3.5,3.5,0,0,0,0-4.254,1,1,0,0,0-1.558,1.254,1.5,1.5,0,0,1,0,1.746A3.5,3.5,0,0,0,31.721,7.627Z"/><path d="M14.721,7.627a1,1,0,1,0,1.558-1.254,1.5,1.5,0,0,1,0-1.746,3.5,3.5,0,0,0,0-4.254,1,1,0,0,0-1.558,1.254,1.5,1.5,0,0,1,0,1.746A3.5,3.5,0,0,0,14.721,7.627Z"/></g></svg>