<?xml version="1.0" encoding="UTF-8" standalone="no"?> <svg xmlns="http://www.w3.org/2000/svg" viewBox="0 0 48 48"><g id="Shower"><path d="M34,1H22a7.008,7.008,0,0,0-7,7v3.525A9.014,9.014,0,0,0,9.059,19H9a2,2,0,0,0-2,2v1a2,2,0,0,0,2,2H27a2,2,0,0,0,2-2V21a2,2,0,0,0-2-2h-.059A9.014,9.014,0,0,0,21,11.525V8a1,1,0,0,1,1-1H34a1,1,0,0,1,1,1V44a3,3,0,0,0,6,0V8A7.008,7.008,0,0,0,34,1ZM27,22H9V21H27ZM24.92,19H11.08a6.991,6.991,0,0,1,13.84,0ZM39,44a1,1,0,0,1-2,0V8a3,3,0,0,0-3-3H22a3,3,0,0,0-3,3v3.059a8.5,8.5,0,0,0-2,0V8a5.006,5.006,0,0,1,5-5H34a5.006,5.006,0,0,1,5,5Z"/><path d="M18,26a1,1,0,0,0-1,1v1a1,1,0,0,0,2,0V27A1,1,0,0,0,18,26Z"/><path d="M18,30.75a1,1,0,0,0-1,1v1.875a1,1,0,0,0,2,0V31.75A1,1,0,0,0,18,30.75Z"/><path d="M18,36.375a1,1,0,0,0-1,1V39.25a1,1,0,0,0,2,0V37.375A1,1,0,0,0,18,36.375Z"/><path d="M18,42a1,1,0,0,0-1,1v1a1,1,0,0,0,2,0V43A1,1,0,0,0,18,42Z"/><path d="M24.233,28.986a1,1,0,0,0,.877-1.11l-.117-.992a1,1,0,1,0-1.986.233l.117.993a1,1,0,0,0,.991.883A.934.934,0,0,0,24.233,28.986Z"/><path d="M24.9,34.616a1,1,0,0,0,.876-1.11l-.22-1.877a1,1,0,0,0-1.987.234l.221,1.877a1,1,0,0,0,.992.883A.945.945,0,0,0,24.9,34.616Z"/><path d="M25.559,40.246a1,1,0,0,0,.876-1.11l-.221-1.877a1,1,0,1,0-1.986.234l.221,1.877a1,1,0,0,0,.991.883A.961.961,0,0,0,25.559,40.246Z"/><path d="M25.767,42.014a1,1,0,0,0-.877,1.11l.117.992A1,1,0,0,0,26,45a.945.945,0,0,0,.118-.007,1,1,0,0,0,.876-1.11l-.117-.993A1,1,0,0,0,25.767,42.014Z"/><path d="M12.117,26.007a1,1,0,0,0-1.11.877l-.117.992a1,1,0,0,0,.877,1.11.934.934,0,0,0,.118.007,1,1,0,0,0,.991-.883l.117-.993A1,1,0,0,0,12.117,26.007Z"/><path d="M10.9,36.383a1,1,0,0,0-1.11.876l-.221,1.877a1,1,0,0,0,.876,1.11.961.961,0,0,0,.119.007,1,1,0,0,0,.991-.883l.221-1.877A1,1,0,0,0,10.9,36.383Z"/><path d="M11.558,30.753a1,1,0,0,0-1.11.876l-.22,1.877a1,1,0,0,0,.876,1.11.945.945,0,0,0,.118.007,1,1,0,0,0,.992-.883l.221-1.877A1,1,0,0,0,11.558,30.753Z"/><path d="M10.233,42.014a1,1,0,0,0-1.109.876l-.117.993a1,1,0,0,0,.876,1.11A.945.945,0,0,0,10,45a1,1,0,0,0,.992-.884l.117-.992A1,1,0,0,0,10.233,42.014Z"/></g></svg>