<svg width="364" height="388" viewBox="0 0 364 388" fill="none" xmlns="http://www.w3.org/2000/svg">
<path d="M35.7195 364.07C44.1913 375.13 65.6469 384.04 75.3158 387.112C91.1542 389.693 98.7972 386.037 100.639 383.886V364.07L112.149 328.124C116.938 320.382 119.363 294.482 119.977 282.5L131.027 270.979H142.537L176.608 234.111L200.55 236.415L209.298 242.867L221.269 241.024C244.106 257.245 257.796 260.379 261.786 259.918C280.572 259.181 301.229 232.575 309.21 219.364L317.958 220.746C319.339 216.599 325.325 217.52 337.756 217.52H364C363.263 205.354 348.346 198.626 340.979 196.782C330.297 197.151 315.349 192.634 309.21 190.33C301.632 192.911 299.606 201.237 299.541 205.077C271.916 206.921 264.702 219.978 264.549 226.276H258.103C257.336 225.508 253.683 222.221 245.211 215.216C236.74 208.211 232.166 205.538 230.938 205.077L227.715 199.086L219.888 194.478C218.353 192.481 211.693 184.8 197.327 170.053C182.962 155.306 193.491 133.185 200.55 123.968L218.507 135.028L225.874 138.715C232.872 142.033 251.504 152.08 259.945 156.688C273.942 160.744 286.649 167.288 291.253 170.053L296.778 177.887C299.725 177.887 305.066 184.032 307.368 187.104C308.442 186.49 310.591 184.708 310.591 182.496C310.591 180.284 308.442 178.502 307.368 177.887C311.42 173.832 317.651 184.493 320.26 190.33H325.325C329.376 173.002 315.042 164.062 307.368 161.758L299.541 158.532C283.119 147.164 248.71 123.968 242.449 122.125C236.187 120.281 220.195 102.616 212.982 94.013C211.508 90.3262 191.802 79.2659 182.134 74.1965L178.911 67.2838C182.594 63.597 184.743 57.7596 185.356 55.3018C186.738 45.1631 186.461 24.3328 174.306 22.1207C159.112 19.3556 154.048 26.2683 148.523 36.407C144.103 44.5179 146.681 58.5277 148.523 64.5187V77.847C136.552 79.2295 133.329 60.8319 123.66 57.606C113.991 54.3801 107.545 54.8409 103.862 55.3018C100.915 55.6704 87.9006 47.1601 81.7617 42.8589L73.4741 36.407C69.4224 33.0889 40.4772 21.5062 26.5111 16.1297C20.6177 13.1803 17.6096 5.68379 16.8422 2.30424L8.55465 0C4.50294 1.10604 1.34138 8.14165 0.267065 11.5212C-1.57462 15.208 6.55949 20.1237 10.8568 22.1207C15.2768 22.4894 24.9763 28.7262 29.2736 31.7985C45.1121 46.9143 65.34 57.4524 73.4741 60.8319C78.6308 69.6802 105.704 87.8684 118.595 95.8564C118.595 118.346 121.972 150.39 123.66 163.601C126.975 168.763 129.032 186.336 129.645 194.478V205.077L123.66 220.746C118.503 222.958 99.4111 253.006 90.5097 267.753V282.5C88.5145 296.633 84.6163 327.939 84.9846 340.106C85.3529 352.272 81.1478 357.464 78.9991 358.54H59.201C47.8439 355.775 27.2478 353.01 35.7195 364.07Z" fill="white"/>
</svg>
